<svg xmlns="http://www.w3.org/2000/svg" viewBox="0 12.329999923706055 45.58000183105469 35.519996643066406" data-asc="0.935546875"><g fill="#f50000"><g fill="#f50000" transform="translate(0, 0)"><path d="M43.95 13.04Q45.58 13.04 45.58 14.18Q45.58 15.65 43.31 18.36L42.85 18.90Q40.84 21.34 37.77 22.24Q36.69 22.56 36.01 22.56Q35.13 22.56 34.64 22.51Q34.16 22.46 33.23 22.39L31.15 22.22Q28.52 22.05 25.88 21.90Q21.02 26.66 17.63 32.28Q16.38 34.35 16.38 34.84Q16.38 37.18 17.96 38.16Q19.53 39.14 22.20 39.14Q24.88 39.14 26.77 38.85Q28.66 38.57 30.33 38.15Q32.01 37.72 33.44 37.19Q34.86 36.67 35.95 36.21Q37.04 35.74 37.74 35.38L38.70 34.89Q39.45 34.69 40.11 35.06Q41.28 35.77 41.28 36.67Q41.28 37.57 40.23 38.48Q31.76 45.78 20.97 47.34Q17.46 47.85 14.31 47.85Q11.16 47.85 9.39 47.52Q7.62 47.19 6.43 46.63Q5.25 46.07 4.57 45.32Q3.88 44.58 3.54 43.75Q3.03 42.50 3.03 40.83Q3.03 39.16 3.50 38.09Q3.98 37.01 4.69 36.01Q5.40 35.01 6.24 34.03Q7.08 33.06 7.60 32.32Q8.13 31.59 8.79 30.86Q12.55 26.95 13.84 25.68L18.04 21.68Q14.18 21.68 12.68 22.08Q11.18 22.49 10.12 22.83Q9.06 23.17 7.96 23.56Q6.86 23.95 5.96 24.32Q3.88 25.15 3.52 25.45Q3.15 25.76 2.61 25.76Q2.08 25.76 1.62 25.57Q1.17 25.39 0.81 25.05Q0 24.34 0 23.47Q0 22.61 0.57 21.78Q1.15 20.95 2.34 19.89Q3.54 18.82 4.81 17.82L7.13 15.99Q8.20 15.14 8.57 14.60Q9.64 13.04 13.72 12.50Q14.89 12.33 16.13 12.33Q17.36 12.33 19.49 12.52Q21.63 12.72 24.61 12.94Q32.57 13.57 36.32 13.57Q40.06 13.57 40.60 13.48L41.70 13.31Q43.29 13.04 43.95 13.04Z"/></g></g></svg>